<svg version="1.1" id="Layer_1" xmlns="http://www.w3.org/2000/svg" xmlns:xlink="http://www.w3.org/1999/xlink" x="0px" y="0px"
	 width="188" height="53" viewBox="0 0 2037 565" enable-background="new 0 0 2037 565" xml:space="preserve">
<path fill="#FFFFFF" opacity="1.000000" stroke="none" 
	d="
M2038.000000,549.000000 
	C2038.000000,554.660583 2038.000000,560.321228 2038.000000,566.000000 
	C1912.973145,566.000000 1787.946289,566.000000 1662.473022,565.604492 
	C1667.447266,562.326538 1672.867920,559.444153 1678.100952,556.661499 
	C1678.100952,557.934021 1678.100952,560.222839 1678.100952,562.753662 
	C1681.415283,562.753662 1684.483398,562.753662 1687.746094,562.753662 
	C1687.746094,542.158020 1687.746094,521.776794 1687.746094,501.295166 
	C1684.429688,501.295166 1681.373413,501.295166 1678.000000,501.295166 
	C1678.000000,513.380859 1678.238525,525.181702 1677.861084,536.962830 
	C1677.740967,540.713013 1676.578369,544.715637 1674.857788,548.072388 
	C1670.561523,556.454285 1655.621216,558.051270 1651.407959,550.619690 
	C1649.277344,546.861572 1648.303345,542.037720 1648.147827,537.648193 
	C1647.719849,525.563660 1648.000000,513.453979 1648.000000,501.312134 
	C1644.396118,501.312134 1641.339355,501.312134 1638.002441,501.312134 
	C1638.002441,516.250000 1637.733643,530.884277 1638.094604,545.502930 
	C1638.346191,555.695862 1642.777222,560.662903 1652.976440,564.119263 
	C1653.473022,564.287476 1653.665771,565.352539 1654.000000,566.000000 
	C1543.639771,566.000000 1433.279663,566.000000 1322.469727,565.618896 
	C1327.094604,561.963989 1332.169434,558.690186 1337.231689,555.424377 
	C1337.231689,557.468140 1337.231689,560.075195 1337.231689,562.679504 
	C1340.285400,562.679504 1343.009155,562.679504 1345.664062,562.679504 
	C1345.664062,533.311279 1345.664062,504.264801 1345.664062,475.383301 
	C1342.261353,475.383301 1339.203247,475.383301 1335.675781,475.383301 
	C1335.675781,486.112305 1335.675781,496.462616 1335.675781,507.729309 
	C1330.321045,501.182434 1324.008667,500.105743 1316.872192,499.834747 
	C1306.065063,499.424316 1294.572144,508.710388 1294.960327,521.928040 
	C1295.180298,529.415710 1294.986206,536.915161 1295.003540,544.409241 
	C1295.024902,553.705688 1301.417847,561.721130 1310.470825,564.037598 
	C1311.732056,564.360291 1312.827759,565.329895 1314.000000,566.000000 
	C1000.973145,566.000000 687.946289,566.000000 374.656921,565.611694 
	C380.982758,564.815613 387.575989,564.473877 394.158173,563.983276 
	C402.354034,563.372375 410.618164,563.128967 418.714264,561.849915 
	C433.012573,559.590942 447.248077,556.874268 461.434967,553.981995 
	C492.644043,547.619324 522.488831,537.352600 550.427551,521.898621 
	C576.777771,507.323334 600.172302,489.223358 619.140381,465.518372 
	C632.897766,448.325256 644.229187,429.785095 652.721985,409.543549 
	C665.055786,380.147369 671.054321,349.200073 673.883057,317.621948 
	C674.916199,306.088593 674.545898,294.435181 675.033447,282.845673 
	C675.522644,271.216888 662.883179,258.778198 651.335449,258.811310 
	C541.184998,259.127319 431.033234,259.010193 320.881897,258.958252 
	C316.959503,258.956390 313.006927,258.545593 309.120819,257.970886 
	C297.317169,256.225311 289.001770,246.466537 289.001099,234.577164 
	C288.998444,185.750595 289.165741,136.922943 288.844360,88.098495 
	C288.787750,79.495949 293.524963,73.753716 300.176208,71.592575 
	C307.380951,69.251579 315.035553,67.795448 322.594360,67.173462 
	C331.559418,66.435753 340.670654,66.479980 349.645721,67.154449 
	C357.716400,67.760948 365.847931,69.086700 373.657959,71.189522 
	C380.995453,73.165108 387.330048,79.712158 387.189972,89.660233 
	C386.699738,124.481834 386.997437,159.314560 387.002350,194.143066 
	C387.003235,200.530899 387.463867,200.997269 393.804413,200.997528 
	C482.292145,201.001175 570.779846,201.001190 659.267578,200.997314 
	C665.027405,200.997055 666.333740,199.594345 664.573547,194.226059 
	C660.384216,181.449280 656.466370,168.539001 651.417297,156.097214 
	C638.300842,123.776009 617.988342,96.619469 591.505798,73.865372 
	C571.756897,56.896858 549.706055,43.794586 525.958008,33.568459 
	C492.448029,19.138765 457.204559,10.718481 421.127716,6.188276 
	C402.372528,3.833169 383.383026,3.349645 364.503235,1.967785 
	C363.318237,1.881051 362.166962,1.333284 361.000000,1.000002 
	C919.893860,1.000000 1478.787720,1.000000 2038.000000,1.000000 
	C2038.000000,179.693390 2038.000000,358.386993 2037.666260,537.445679 
	C2033.969360,532.067322 2028.868042,529.122253 2022.391479,527.909729 
	C2017.155762,526.929565 2011.806396,525.876831 2006.955078,523.806946 
	C2004.465088,522.744507 2001.865845,519.637573 2001.260498,517.007141 
	C2000.393311,513.238525 2002.947510,510.278107 2006.859375,508.961670 
	C2013.331299,506.783630 2019.646118,507.602722 2025.164795,511.199371 
	C2028.338745,513.267883 2030.032959,512.402405 2032.210693,510.334808 
	C2033.151123,509.442078 2034.340088,508.811188 2036.503174,507.303772 
	C2031.836548,504.720093 2028.656250,501.859497 2025.079468,501.221649 
	C2018.790771,500.100098 2011.991089,499.029755 2005.886108,500.281769 
	C1993.567383,502.808136 1986.451538,514.077026 1993.238037,526.363586 
	C1995.272827,530.047607 2001.105713,532.097778 2005.607544,533.839539 
	C2011.447510,536.099121 2017.884155,536.822632 2023.711304,539.106873 
	C2028.608887,541.026794 2029.380127,546.491455 2025.960083,550.476746 
	C2022.961548,553.971069 2019.329346,555.923401 2014.442261,556.112244 
	C2007.513672,556.380005 2001.642944,554.681580 1996.383667,550.030334 
	C1992.427734,546.531677 1991.651733,552.820496 1988.776489,553.057495 
	C1989.175781,554.527100 1989.101929,556.527100 1990.054321,557.376648 
	C1994.807617,561.616882 2000.578369,563.208557 2006.892212,564.199646 
	C2021.366821,566.471802 2031.708618,561.748901 2038.000000,549.000000 
M1366.172363,383.661896 
	C1367.725342,384.107697 1369.275146,384.926483 1370.831909,384.940155 
	C1382.994141,385.046844 1395.159302,385.116028 1407.320068,384.949585 
	C1413.463013,384.865540 1416.269653,379.884613 1413.172729,374.638519 
	C1406.231812,362.880951 1399.105469,351.232910 1392.042847,339.547272 
	C1385.662964,328.991302 1379.267578,318.444763 1372.659668,307.531769 
	C1376.889282,305.932281 1380.869995,304.642761 1384.672119,302.951782 
	C1400.837891,295.762207 1413.741577,281.057556 1413.981079,261.256470 
	C1414.091919,252.093826 1414.148193,242.925751 1413.966553,233.765350 
	C1413.666016,218.609344 1406.897461,206.756958 1394.744141,197.981461 
	C1379.429565,186.923462 1361.464722,183.611069 1343.375854,183.241684 
	C1304.736572,182.452637 1266.069824,182.983643 1227.414429,183.019165 
	C1222.012329,183.024124 1220.004272,185.135681 1220.003784,190.448608 
	C1219.997925,252.763870 1219.998291,315.079132 1220.002808,377.394379 
	C1220.003296,382.998260 1221.969482,384.962646 1227.757202,384.987885 
	C1237.754150,385.031525 1247.751465,385.002747 1257.748535,384.999115 
	C1265.534912,384.996277 1267.984619,382.553345 1267.993286,374.646149 
	C1268.014282,355.651672 1268.000000,336.657166 1268.000000,317.662659 
	C1268.000000,315.889404 1268.000000,314.116150 1268.000000,312.002045 
	C1285.524170,312.002045 1302.487183,311.960724 1319.448608,312.097931 
	C1320.541748,312.106750 1322.033325,313.246979 1322.650513,314.274689 
	C1333.865356,332.947693 1344.885742,351.738007 1356.169922,370.368683 
	C1358.896118,374.869812 1362.419556,378.888062 1366.172363,383.661896 
M932.281128,245.748672 
	C933.095703,249.200302 935.105103,251.042511 938.822266,251.021622 
	C949.988403,250.958878 961.155273,250.974380 972.321655,251.014175 
	C975.383667,251.025085 977.804565,249.624573 977.855713,246.695908 
	C977.994446,238.749237 978.610840,230.604553 977.190125,222.878159 
	C973.798523,204.434006 960.711975,194.338516 944.182556,188.001633 
	C926.682007,181.292465 908.245361,179.808945 889.765747,179.100021 
	C882.525146,178.822266 875.244507,179.824371 867.976746,179.966324 
	C853.818542,180.242859 840.017212,182.529724 826.603882,187.017654 
	C816.553711,190.380295 807.313110,195.363068 800.314514,203.425690 
	C787.656860,218.007767 788.616638,236.008759 790.485901,253.183121 
	C792.397156,270.744049 804.699341,281.997803 820.940674,286.734131 
	C841.159973,292.630554 862.020874,296.321930 882.594666,301.009430 
	C895.567810,303.965149 908.623596,306.629974 921.452820,310.121552 
	C931.268738,312.793091 934.690735,318.093079 935.075256,326.882080 
	C935.529053,337.252502 930.685608,344.912567 921.267944,347.256378 
	C915.139526,348.781586 908.926392,350.147156 902.669617,350.941528 
	C885.553345,353.114685 868.405396,353.030670 851.596375,348.863678 
	C842.369202,346.576294 833.826416,342.447876 832.295288,331.430573 
	C831.681641,327.015411 831.802856,322.445038 832.074463,317.974792 
	C832.348083,313.471497 829.976501,312.046814 826.173218,312.024902 
	C814.673767,311.958710 803.166077,311.791626 791.681213,312.205688 
	C789.744568,312.275513 786.276672,315.041534 786.282288,316.551544 
	C786.321411,327.091003 785.585815,337.980408 787.956909,348.087067 
	C792.046448,365.518127 806.115295,374.048462 821.787048,379.998535 
	C840.928406,387.265900 861.141785,388.039398 881.218445,388.817047 
	C891.204956,389.203888 901.267212,387.690186 911.292725,387.000793 
	C928.895569,385.790344 945.831177,382.075287 960.923340,372.487335 
	C973.212463,364.680176 980.727600,353.719666 980.971802,338.683990 
	C981.123413,329.353271 981.205200,320.011200 980.894104,310.688385 
	C980.777649,307.197510 979.939575,303.548706 978.604797,300.312408 
	C973.186646,287.175720 962.064697,279.653076 949.383179,276.307739 
	C923.966248,269.602905 898.069092,264.727478 872.399475,258.966431 
	C862.917480,256.838379 853.463623,254.538895 844.101562,251.940582 
	C838.694214,250.439850 836.509155,245.838379 836.082581,240.696472 
	C835.555481,234.342468 836.460754,228.276352 842.078247,223.975037 
	C849.862610,218.014557 859.306091,216.517914 868.397949,216.281509 
	C882.722900,215.909012 897.178772,216.606903 911.423523,218.223602 
	C926.025208,219.880798 931.965759,227.748138 932.001526,242.402283 
	C932.003540,243.235413 932.025940,244.068497 932.281128,245.748672 
M1172.994629,291.042419 
	C1172.996460,284.709839 1173.029175,278.377075 1172.991821,272.044739 
	C1172.948120,264.615387 1171.342529,263.000366 1164.149414,263.000214 
	C1133.653320,262.999634 1103.157104,263.000000 1072.661011,263.000000 
	C1070.887695,263.000000 1069.114380,263.000000 1067.326416,263.000000 
	C1067.326416,248.707397 1067.326416,234.982803 1067.326416,221.000000 
	C1069.463867,221.000000 1071.276611,221.000000 1073.089355,221.000000 
	C1105.751953,221.000000 1138.414429,221.002563 1171.077026,220.997940 
	C1177.958374,220.996964 1178.993042,219.937042 1178.998779,212.944702 
	C1179.004272,206.112228 1179.000244,199.279770 1179.000000,192.447296 
	C1178.999756,184.382645 1177.626831,183.001022 1169.582764,183.000763 
	C1122.588745,182.999237 1075.594604,182.999527 1028.600586,183.000443 
	C1020.565186,183.000610 1019.000854,184.531387 1019.000671,192.406784 
	C1018.999329,253.232452 1018.999878,314.058105 1019.000183,374.883789 
	C1019.000183,383.675873 1020.358459,384.998596 1029.420532,384.999115 
	C1066.415894,385.001251 1103.411133,385.000000 1140.406494,385.000000 
	C1151.071777,385.000000 1161.737183,385.000122 1172.402466,384.999939 
	C1182.130859,384.999786 1183.000000,384.157715 1183.000000,374.733215 
	C1183.000000,367.734100 1183.008301,360.734955 1182.997437,353.735840 
	C1182.987793,347.441864 1182.539795,347.002838 1176.074341,347.002045 
	C1141.578735,346.997742 1107.083008,347.000000 1072.587402,347.000000 
	C1070.821167,347.000000 1069.054810,347.000000 1067.352295,347.000000 
	C1067.352295,330.654877 1067.352295,314.930206 1067.352295,299.000000 
	C1099.353027,299.000000 1131.002930,298.870422 1162.649902,299.120117 
	C1168.311523,299.164795 1172.306274,298.362213 1172.994629,291.042419 
M1810.498047,263.000000 
	C1782.079346,263.000000 1753.660645,263.000000 1725.376831,263.000000 
	C1725.376831,248.603271 1725.376831,234.878296 1725.376831,221.000000 
	C1727.579224,221.000000 1729.405273,221.000000 1731.231201,221.000000 
	C1764.057861,221.000000 1796.884521,221.006424 1829.711182,220.994095 
	C1835.663208,220.991852 1836.974121,219.686844 1836.994019,213.811279 
	C1837.018921,206.479507 1837.000732,199.147614 1836.999756,191.815765 
	C1836.998779,184.471390 1835.499878,183.002060 1827.952271,183.001572 
	C1780.628540,182.998459 1733.304932,182.998306 1685.981201,183.001770 
	C1678.716309,183.002304 1677.001953,184.726151 1677.001587,192.025070 
	C1676.998901,253.345932 1676.998779,314.666809 1677.001587,375.987671 
	C1677.001953,383.275543 1678.720337,384.997681 1685.993896,384.998291 
	C1728.985107,385.001801 1771.976440,385.000000 1814.967651,385.000000 
	C1820.966431,385.000000 1826.965332,385.025543 1832.963989,384.992889 
	C1839.127441,384.959320 1840.992188,383.124969 1840.998047,377.172119 
	C1841.005615,369.507019 1841.003662,361.841888 1840.999023,354.176788 
	C1840.994751,347.327393 1840.685181,347.002563 1834.016235,347.001801 
	C1799.523315,346.997894 1765.030273,347.000000 1730.537354,347.000000 
	C1728.776001,347.000000 1727.014648,347.000000 1725.368408,347.000000 
	C1725.368408,330.620209 1725.368408,314.895966 1725.368408,299.000000 
	C1727.559082,299.000000 1729.383301,299.000000 1731.207642,299.000000 
	C1762.034668,299.000000 1792.862061,298.932770 1823.688477,299.070557 
	C1828.453735,299.091827 1830.215576,297.384125 1830.068237,292.648163 
	C1829.819580,284.657532 1829.898682,276.651733 1830.042969,268.655945 
	C1830.114868,264.669678 1828.580688,262.822357 1824.492798,262.966064 
	C1820.165771,263.118164 1815.829102,263.000061 1810.498047,263.000000 
M1449.982422,343.381226 
	C1453.521729,358.639282 1463.342529,368.973114 1476.746582,375.855957 
	C1497.499756,386.512329 1520.297241,388.033081 1543.018433,388.835236 
	C1552.341919,389.164368 1561.730835,387.678802 1571.088379,386.998108 
	C1586.040527,385.910431 1600.329102,382.272308 1613.501709,375.050018 
	C1626.580688,367.879120 1636.751099,357.899963 1638.961792,342.466156 
	C1640.219849,333.683624 1639.782593,324.649719 1639.974243,315.726135 
	C1640.093628,310.172363 1638.955078,309.042786 1633.431763,309.016174 
	C1622.267578,308.962311 1611.102905,308.983093 1599.938477,309.008118 
	C1595.283569,309.018555 1593.170044,311.109680 1593.020142,315.926361 
	C1592.916504,319.255829 1593.028198,322.591400 1592.993896,325.923706 
	C1592.932251,331.913910 1590.688232,336.708282 1585.966797,340.654846 
	C1577.095093,348.070312 1566.251343,349.365173 1555.623657,349.751587 
	C1543.979248,350.174957 1532.203735,349.199738 1520.595337,347.871948 
	C1504.484497,346.029205 1496.164551,336.502930 1496.047485,320.456238 
	C1495.867554,295.795807 1495.535767,271.120605 1496.198242,246.476669 
	C1496.524292,234.342606 1498.720581,226.162369 1513.934692,221.696716 
	C1534.221924,215.741989 1554.897827,216.404770 1575.303955,221.327835 
	C1580.995850,222.701035 1586.246582,225.812515 1589.904419,231.216751 
	C1593.582153,236.650131 1592.880127,242.475449 1592.997559,248.333450 
	C1593.097778,253.333542 1595.582275,256.837555 1599.914307,256.920105 
	C1611.241333,257.135956 1622.579468,257.173889 1633.903564,256.894653 
	C1637.637939,256.802582 1640.299316,254.794037 1640.059448,250.226166 
	C1639.797729,245.240921 1639.924805,240.229965 1640.013184,235.232529 
	C1640.360229,215.578384 1630.485962,202.224091 1613.978638,193.008347 
	C1594.703003,182.247162 1573.360596,180.094620 1551.972534,179.204910 
	C1540.330200,178.720581 1528.562744,179.939743 1516.919312,181.081436 
	C1498.219360,182.915070 1480.431763,187.457977 1465.410278,199.821991 
	C1455.384399,208.074020 1449.251465,218.391205 1449.121826,231.275345 
	C1448.767822,266.431427 1448.986084,301.593445 1449.037720,336.752991 
	C1449.040527,338.673126 1449.590088,340.592468 1449.982422,343.381226 
M1878.000000,295.500000 
	C1878.000000,322.315155 1877.999878,349.130280 1878.000366,375.945435 
	C1878.000488,383.559509 1879.473633,384.998749 1887.301270,384.999054 
	C1933.103516,385.001007 1978.905884,384.999969 2024.708130,384.999939 
	C2025.540894,384.999939 2026.375488,385.035370 2027.206177,384.993042 
	C2031.966797,384.750458 2033.979736,382.680450 2033.993652,377.934723 
	C2034.016968,369.940247 2034.005737,361.945587 2033.998413,353.951019 
	C2033.992432,347.309357 2033.674072,347.001801 2026.796387,347.001221 
	C1994.651489,346.998505 1962.506714,347.000000 1930.361816,347.000000 
	C1928.618164,347.000000 1926.874512,347.000000 1925.000000,347.000000 
	C1925.000000,344.230469 1925.000000,342.235809 1925.000000,340.241150 
	C1925.000000,290.275024 1925.003296,240.308899 1924.995361,190.342773 
	C1924.994507,184.791138 1923.199829,183.012848 1917.625122,183.004532 
	C1907.132202,182.988876 1896.639404,182.997101 1886.146484,183.001068 
	C1879.459717,183.003601 1878.001831,184.444565 1878.001343,191.070114 
	C1877.998535,225.546738 1878.000000,260.023376 1878.000000,295.500000 
M1612.206299,519.040894 
	C1610.786865,518.476196 1609.367432,517.911438 1607.063721,516.994934 
	C1614.231201,513.764099 1618.124756,508.785645 1619.436646,502.038269 
	C1621.920532,489.264038 1616.533447,478.009247 1604.408569,476.454651 
	C1589.954468,474.601349 1575.081055,476.017914 1560.306885,476.017914 
	C1560.306885,504.589203 1560.306885,533.644287 1560.306885,562.997437 
	C1573.917114,562.997437 1587.249146,563.509644 1600.518921,562.821472 
	C1609.711426,562.344788 1617.545166,557.579468 1620.534790,548.578491 
	C1624.165894,537.646667 1623.354248,527.014587 1612.206299,519.040894 
M1060.068726,531.266479 
	C1054.354004,515.412109 1048.576416,499.580048 1042.949463,483.694611 
	C1039.836792,474.907227 1039.950439,474.864868 1030.457031,475.041931 
	C1030.136719,475.047913 1029.818848,475.189606 1029.392822,475.294403 
	C1018.508850,504.302429 1007.605774,533.361450 996.485229,563.000000 
	C998.939880,563.000000 1000.608276,562.824158 1002.226379,563.034912 
	C1006.161255,563.547485 1008.393799,562.508545 1009.559631,558.158447 
	C1011.146118,552.238647 1013.680359,546.557251 1016.056763,540.877625 
	C1016.554626,539.687744 1018.117493,538.148621 1019.215515,538.127808 
	C1030.019165,537.922241 1040.828369,538.003662 1051.318359,538.003662 
	C1053.295532,543.249634 1055.258179,548.052368 1056.922119,552.956360 
	C1060.389893,563.176453 1060.324951,563.200745 1070.689575,562.960510 
	C1070.953491,562.954346 1071.213013,562.755554 1071.854004,562.488525 
	C1068.055908,552.311707 1064.258545,542.136536 1060.068726,531.266479 
M1174.504517,487.994385 
	C1175.797119,483.872131 1177.089600,479.749908 1178.491455,475.278625 
	C1176.592896,475.152069 1175.432617,475.187531 1174.317139,474.981232 
	C1168.847290,473.969421 1166.487061,476.168610 1164.811890,481.633789 
	C1158.589722,501.934631 1151.687622,522.027344 1144.998779,542.184326 
	C1144.642212,543.258850 1143.901611,544.205811 1143.015869,545.792114 
	C1142.412964,544.514282 1142.173584,544.122986 1142.036011,543.698730 
	C1135.031860,522.111267 1128.063843,500.511841 1120.978027,478.951202 
	C1120.497925,477.490387 1119.303589,475.404114 1118.151001,475.192841 
	C1115.213501,474.654449 1112.111450,475.013611 1109.179565,475.013611 
	C1109.098999,476.187897 1108.971924,476.552673 1109.068604,476.843079 
	C1117.822388,503.158020 1126.575562,529.473206 1135.373291,555.773499 
	C1138.172363,564.140991 1138.227905,564.125854 1147.109375,563.982361 
	C1147.594971,563.974487 1148.078491,563.829956 1148.526001,563.755188 
	C1149.248169,561.714600 1149.968140,559.750183 1150.640381,557.769470 
	C1158.456665,534.741516 1166.265747,511.711182 1174.504517,487.994385 
M1411.660645,564.001648 
	C1423.233398,567.194153 1437.478760,562.866089 1443.066406,552.567627 
	C1440.513794,551.082703 1437.952393,549.592651 1435.500732,548.166443 
	C1426.152222,556.957031 1418.317749,558.325256 1409.114136,553.020874 
	C1403.586914,549.835388 1401.651245,543.138611 1403.796509,533.745728 
	C1417.069214,533.745728 1430.458984,533.745728 1443.999268,533.745728 
	C1443.999268,529.100830 1444.375854,524.903564 1443.917603,520.799561 
	C1443.072144,513.227356 1440.016479,506.976776 1432.944336,502.889496 
	C1426.610718,499.228973 1419.888184,499.772217 1413.233643,500.099731 
	C1403.868652,500.560638 1393.929199,510.028381 1393.059692,519.010986 
	C1392.441162,525.402893 1391.903076,531.857239 1392.091919,538.261169 
	C1392.459106,550.700623 1396.841309,560.615845 1411.660645,564.001648 
M1875.830322,561.968872 
	C1892.167358,569.245056 1911.860962,562.305176 1913.856201,552.243408 
	C1911.593018,550.868713 1909.258423,549.450623 1906.938110,548.041138 
	C1896.824951,556.307617 1888.036865,558.229370 1881.238281,553.693909 
	C1874.935059,549.488892 1872.604736,542.475769 1874.833008,533.864746 
	C1888.012451,533.864746 1901.274536,533.864746 1914.985596,533.864746 
	C1914.985596,528.619263 1915.452637,523.615784 1914.869751,518.737732 
	C1914.109741,512.377869 1910.951538,507.327209 1905.332397,503.609772 
	C1898.907104,499.358948 1891.839966,499.400513 1884.935425,500.169586 
	C1875.560547,501.213715 1866.809937,506.834839 1865.084473,518.005676 
	C1864.009888,524.962219 1864.370239,532.134766 1863.986328,539.204956 
	C1863.464722,548.812256 1866.862915,556.419128 1875.830322,561.968872 
M1460.000000,547.496521 
	C1460.000000,552.591492 1460.000000,557.686401 1460.000000,562.623169 
	C1463.731201,562.623169 1466.786743,562.623169 1470.000000,562.623169 
	C1470.000000,561.255981 1469.977051,560.265015 1470.003540,559.275330 
	C1470.331299,547.029968 1470.292725,534.759399 1471.125977,522.548340 
	C1471.714722,513.918457 1480.202881,508.176636 1489.690796,509.008331 
	C1494.947876,509.469177 1500.325073,514.230591 1500.082397,523.720947 
	C1499.751709,536.658020 1500.000000,549.609924 1500.000000,562.730957 
	C1503.516846,562.730957 1506.572998,562.730957 1509.996338,562.730957 
	C1509.996338,546.677917 1510.005981,530.891052 1509.967407,515.104309 
	C1509.965576,514.333984 1509.553345,513.561279 1509.313599,512.795471 
	C1505.439819,500.419342 1489.184204,495.215790 1477.795410,502.763519 
	C1475.309937,504.410675 1473.006226,506.332123 1470.170776,508.464142 
	C1470.038574,505.533478 1469.944092,503.437897 1469.847900,501.305725 
	C1466.420532,501.305725 1463.357788,501.305725 1460.000000,501.305725 
	C1460.000000,516.572327 1460.000000,531.535217 1460.000000,547.496521 
M1798.000000,536.500000 
	C1798.000000,545.264221 1798.000000,554.028503 1798.000000,562.615356 
	C1801.743286,562.615356 1804.800049,562.615356 1808.000000,562.615356 
	C1808.000000,554.571655 1807.875610,546.909241 1808.040161,539.253052 
	C1808.167358,533.332703 1808.110596,527.325989 1809.110718,521.525818 
	C1810.675781,512.450867 1818.395508,507.719116 1828.203613,509.009674 
	C1833.773560,509.742523 1837.996216,516.274719 1837.998901,524.181702 
	C1838.003174,536.970825 1838.000000,549.759888 1838.000000,562.731567 
	C1841.512207,562.731567 1844.569824,562.731567 1847.548462,562.731567 
	C1847.741821,562.168213 1847.934082,561.868286 1847.934814,561.568054 
	C1847.967041,547.902466 1848.112549,534.235474 1847.967896,520.571655 
	C1847.776245,502.478729 1835.853638,497.250397 1820.793823,500.907257 
	C1816.346313,501.987183 1812.441772,505.302551 1808.135498,507.677826 
	C1808.038086,505.552521 1807.942261,503.459930 1807.843018,501.294312 
	C1804.448975,501.294312 1801.384155,501.294312 1798.400879,501.294312 
	C1798.224854,501.890900 1798.056519,502.196564 1798.055786,502.502655 
	C1798.027588,513.501770 1798.014771,524.500854 1798.000000,536.500000 
M1965.980835,550.098999 
	C1963.813110,551.732849 1961.876343,554.037720 1959.435547,554.878052 
	C1951.294067,557.681030 1943.544312,556.153503 1936.827393,550.874939 
	C1934.087158,548.721619 1932.312378,549.325378 1930.160645,551.290955 
	C1929.074585,552.283142 1927.805054,553.074341 1926.744385,553.862793 
	C1934.990479,565.683289 1956.469360,567.723816 1967.626831,561.116882 
	C1975.105347,556.688477 1978.567139,549.122498 1976.981812,539.527344 
	C1976.082764,534.086914 1969.657959,529.363525 1962.212036,527.916565 
	C1956.354004,526.778259 1950.478394,525.329468 1944.933716,523.183594 
	C1942.827393,522.368408 1940.230591,519.131531 1940.355957,517.156799 
	C1940.518799,514.589783 1942.602539,511.216492 1944.859497,509.883362 
	C1951.814819,505.775391 1958.709595,507.941467 1965.215576,511.733704 
	C1967.227051,512.906250 1973.061279,511.180725 1973.432251,508.671722 
	C1973.650269,507.196320 1971.759033,504.768982 1970.182617,503.776947 
	C1962.475464,498.925934 1953.931396,498.537842 1945.221558,500.057373 
	C1937.322510,501.435425 1930.345093,508.795837 1930.000366,515.879639 
	C1929.536987,525.395203 1933.153564,530.482727 1942.916504,533.382385 
	C1946.946533,534.579285 1951.189941,535.037415 1955.287598,536.031677 
	C1964.724854,538.321655 1969.195190,541.618286 1965.980835,550.098999 
M1711.523071,530.015808 
	C1714.804565,531.346802 1718.018677,532.889832 1721.382812,533.961426 
	C1727.072388,535.773682 1733.046265,536.822754 1738.546265,539.062805 
	C1743.686646,541.156311 1744.119995,546.357605 1740.811523,550.787354 
	C1735.038330,558.517029 1719.243896,557.192505 1712.965820,551.487427 
	C1709.846436,548.652954 1706.027466,549.119934 1703.713501,553.317566 
	C1703.155640,554.329407 1705.184814,557.812561 1706.841309,558.832092 
	C1718.603638,566.071411 1730.885986,567.118469 1743.463257,560.832520 
	C1750.042358,557.544312 1753.810669,550.430847 1752.955444,542.340576 
	C1752.202026,535.214355 1748.014526,530.815125 1741.157104,528.984863 
	C1734.750000,527.274780 1728.137573,526.139648 1721.974487,523.804443 
	C1719.491455,522.863586 1716.873779,519.656799 1716.260864,517.028137 
	C1715.381958,513.258362 1717.934692,510.287354 1721.844849,508.965912 
	C1728.318237,506.778198 1734.638428,507.600800 1740.161621,511.197632 
	C1743.336670,513.265381 1745.031982,512.403564 1747.212036,510.334381 
	C1748.152466,509.441833 1749.344482,508.814514 1750.303223,508.149292 
	C1745.224365,501.446289 1738.758911,500.673187 1731.884399,499.745422 
	C1722.858276,498.527374 1715.412231,500.585205 1709.346802,507.203674 
	C1703.693848,513.371704 1704.698975,525.483154 1711.523071,530.015808 
M1255.997925,502.635895 
	C1255.004761,501.757782 1254.069458,500.198212 1253.009521,500.108307 
	C1243.651611,499.314697 1235.808838,502.422272 1229.159180,510.951477 
	C1229.159180,507.032532 1229.159180,504.201843 1229.159180,501.293091 
	C1225.441895,501.293091 1222.381714,501.293091 1219.328247,501.293091 
	C1219.328247,521.980591 1219.328247,542.373291 1219.328247,562.623047 
	C1222.729004,562.623047 1225.785645,562.623047 1229.000000,562.623047 
	C1229.000000,551.758301 1228.833008,541.266418 1229.046509,530.782288 
	C1229.265747,520.014709 1234.540039,512.739258 1243.407227,510.397614 
	C1247.300171,509.369537 1251.563965,509.744995 1256.000000,509.461395 
	C1256.000000,507.527588 1256.000000,505.549286 1255.997925,502.635895 
M1190.000000,522.500122 
	C1190.000000,535.893494 1190.000000,549.286926 1190.000000,562.679504 
	C1193.631348,562.679504 1196.683228,562.679504 1199.714600,562.679504 
	C1199.714600,542.013977 1199.714600,521.670288 1199.714600,501.319885 
	C1196.368530,501.319885 1193.318237,501.319885 1190.000000,501.319885 
	C1190.000000,508.257996 1190.000000,514.879028 1190.000000,522.500122 
M1277.998291,560.273621 
	C1277.998291,540.578369 1277.998291,520.883118 1277.998291,501.387695 
	C1274.243164,501.387695 1271.189819,501.387695 1268.356445,501.387695 
	C1268.356445,522.126892 1268.356445,542.476929 1268.356445,563.933716 
	C1271.962891,562.919067 1274.974121,562.071899 1277.998291,560.273621 
M1369.590332,501.000305 
	C1366.180664,500.356934 1365.934326,502.288849 1365.952637,505.012115 
	C1366.052246,519.799072 1366.000000,534.587097 1366.000000,549.374756 
	C1366.000000,553.808167 1366.000000,558.241638 1366.000000,562.686523 
	C1369.615723,562.686523 1372.668335,562.686523 1375.711426,562.686523 
	C1375.711426,542.021362 1375.711426,521.671021 1375.711426,501.000000 
	C1373.793335,501.000000 1372.160767,501.000000 1369.590332,501.000305 
M1779.000000,518.501282 
	C1779.000000,512.751709 1779.000000,507.002075 1779.000000,501.349792 
	C1775.312866,501.349792 1772.260620,501.349792 1769.312866,501.349792 
	C1769.312866,522.045288 1769.312866,542.389526 1769.312866,562.650757 
	C1772.689331,562.650757 1775.739258,562.650757 1779.000000,562.650757 
	C1779.000000,548.035339 1779.000000,533.768005 1779.000000,518.501282 
M1272.524902,474.999969 
	C1271.103760,475.089630 1269.682617,475.179260 1268.308228,475.265930 
	C1268.308228,479.996887 1268.308228,484.361542 1268.308228,488.678345 
	C1271.663208,488.678345 1274.703125,488.678345 1277.683594,488.678345 
	C1277.683594,483.987244 1277.683594,479.622833 1277.683594,475.000000 
	C1276.069580,475.000000 1274.770752,475.000000 1272.524902,474.999969 
M1375.246704,475.130463 
	C1372.319214,475.130463 1369.391602,475.130463 1366.389771,475.130463 
	C1366.389771,479.920319 1366.389771,484.401184 1366.389771,488.775391 
	C1369.707642,488.775391 1372.631104,488.775391 1375.885620,488.775391 
	C1375.885620,484.315094 1375.885620,480.068420 1375.246704,475.130463 
M1769.000000,481.520264 
	C1769.000000,483.929260 1769.000000,486.338257 1769.000000,488.670349 
	C1772.679443,488.670349 1775.718994,488.670349 1778.677002,488.670349 
	C1778.677002,483.968750 1778.677002,479.605164 1778.677002,475.336914 
	C1775.307617,475.336914 1772.268188,475.336914 1769.000000,475.336914 
	C1769.000000,477.304352 1769.000000,478.936279 1769.000000,481.520264 
M1190.002075,486.296143 
	C1192.046021,492.166779 1196.477417,487.466919 1199.738281,489.152435 
	C1199.738281,484.101440 1199.738281,479.738037 1199.738281,475.271729 
	C1196.434448,475.271729 1193.397095,475.271729 1190.000000,475.271729 
	C1190.000000,478.805237 1190.000000,482.071960 1190.002075,486.296143 
z"/>
<path fill="#1761E1" opacity="1.000000" stroke="none" 
	d="
M360.531342,1.000002 
	C362.166962,1.333284 363.318237,1.881051 364.503235,1.967785 
	C383.383026,3.349645 402.372528,3.833169 421.127716,6.188276 
	C457.204559,10.718481 492.448029,19.138765 525.958008,33.568459 
	C549.706055,43.794586 571.756897,56.896858 591.505798,73.865372 
	C617.988342,96.619469 638.300842,123.776009 651.417297,156.097214 
	C656.466370,168.539001 660.384216,181.449280 664.573547,194.226059 
	C666.333740,199.594345 665.027405,200.997055 659.267578,200.997314 
	C570.779846,201.001190 482.292145,201.001175 393.804413,200.997528 
	C387.463867,200.997269 387.003235,200.530899 387.002350,194.143066 
	C386.997437,159.314560 386.699738,124.481834 387.189972,89.660233 
	C387.330048,79.712158 380.995453,73.165108 373.657959,71.189522 
	C365.847931,69.086700 357.716400,67.760948 349.645721,67.154449 
	C340.670654,66.479980 331.559418,66.435753 322.594360,67.173462 
	C315.035553,67.795448 307.380951,69.251579 300.176208,71.592575 
	C293.524963,73.753716 288.787750,79.495949 288.844360,88.098495 
	C289.165741,136.922943 288.998444,185.750595 289.001099,234.577164 
	C289.001770,246.466537 297.317169,256.225311 309.120819,257.970886 
	C313.006927,258.545593 316.959503,258.956390 320.881897,258.958252 
	C431.033234,259.010193 541.184998,259.127319 651.335449,258.811310 
	C662.883179,258.778198 675.522644,271.216888 675.033447,282.845673 
	C674.545898,294.435181 674.916199,306.088593 673.883057,317.621948 
	C671.054321,349.200073 665.055786,380.147369 652.721985,409.543549 
	C644.229187,429.785095 632.897766,448.325256 619.140381,465.518372 
	C600.172302,489.223358 576.777771,507.323334 550.427551,521.898621 
	C522.488831,537.352600 492.644043,547.619324 461.434967,553.981995 
	C447.248077,556.874268 433.012573,559.590942 418.714264,561.849915 
	C410.618164,563.128967 402.354034,563.372375 394.158173,563.983276 
	C387.575989,564.473877 380.982758,564.815613 374.197205,565.611694 
	C350.312439,566.000000 326.624878,566.000000 302.271454,565.611755 
	C288.659729,564.150879 275.624298,563.701965 262.788940,561.859619 
	C243.458649,559.084778 224.105042,556.067993 205.057938,551.823181 
	C178.683456,545.945435 153.448700,536.547119 129.481430,523.881104 
	C105.562782,511.240753 83.857971,495.703613 65.922287,475.318970 
	C58.905052,467.343506 51.994812,459.172699 45.966980,450.447571 
	C29.818048,427.072510 18.623362,401.384186 11.910944,373.756683 
	C10.344294,367.308533 10.494144,367.003784 16.606125,367.003418 
	C105.590584,366.998413 194.575089,367.033112 283.559357,366.904602 
	C288.118927,366.898041 289.100830,368.430450 289.083069,372.665894 
	C288.936188,407.659180 289.040253,442.653412 288.962372,477.647125 
	C288.948578,483.849670 291.481171,489.049286 296.624664,491.607910 
	C302.623260,494.591919 309.319031,497.074066 315.919739,497.751038 
	C327.755585,498.964844 339.767822,499.239349 351.665161,498.797882 
	C359.552185,498.505188 367.527618,496.864014 375.171112,494.763000 
	C383.209747,492.553345 387.000000,486.229340 387.000000,477.673065 
	C387.000000,429.848083 386.644501,382.018707 387.234833,334.201019 
	C387.394562,321.264496 375.943329,308.808594 362.015289,308.843567 
	C250.535461,309.123535 139.054626,309.012207 27.574121,308.966980 
	C21.459066,308.964478 15.906785,307.465698 10.733723,303.546417 
	C5.318230,299.443451 3.385261,293.706482 1.000000,288.000000 
	C1.000000,281.645599 1.000000,275.291199 1.388520,268.270752 
	C2.184180,260.851135 2.188142,254.043839 3.079350,247.354736 
	C5.167916,231.678772 6.923950,215.899399 10.186822,200.451736 
	C16.247883,171.756409 27.261234,144.836945 43.433308,120.333748 
	C55.978951,101.325180 71.260185,84.699532 89.046425,70.208206 
	C109.248154,53.748863 131.722855,41.348724 155.502106,31.372816 
	C187.296600,18.034344 220.799805,10.531225 254.888870,6.200001 
	C273.798492,3.797417 292.955658,3.348067 311.997437,1.966162 
	C313.016296,1.892222 313.999969,1.333203 315.000000,0.999999 
	C330.020905,1.000000 345.041779,1.000000 360.531342,1.000002 
z"/>
<path fill="#FFFFFF" opacity="1.000000" stroke="none" 
	d="
M1.000000,288.468658 
	C3.385261,293.706482 5.318230,299.443451 10.733723,303.546417 
	C15.906785,307.465698 21.459066,308.964478 27.574121,308.966980 
	C139.054626,309.012207 250.535461,309.123535 362.015289,308.843567 
	C375.943329,308.808594 387.394562,321.264496 387.234833,334.201019 
	C386.644501,382.018707 387.000000,429.848083 387.000000,477.673065 
	C387.000000,486.229340 383.209747,492.553345 375.171112,494.763000 
	C367.527618,496.864014 359.552185,498.505188 351.665161,498.797882 
	C339.767822,499.239349 327.755585,498.964844 315.919739,497.751038 
	C309.319031,497.074066 302.623260,494.591919 296.624664,491.607910 
	C291.481171,489.049286 288.948578,483.849670 288.962372,477.647125 
	C289.040253,442.653412 288.936188,407.659180 289.083069,372.665894 
	C289.100830,368.430450 288.118927,366.898041 283.559357,366.904602 
	C194.575089,367.033112 105.590584,366.998413 16.606125,367.003418 
	C10.494144,367.003784 10.344294,367.308533 11.910944,373.756683 
	C18.623362,401.384186 29.818048,427.072510 45.966980,450.447571 
	C51.994812,459.172699 58.905052,467.343506 65.922287,475.318970 
	C83.857971,495.703613 105.562782,511.240753 129.481430,523.881104 
	C153.448700,536.547119 178.683456,545.945435 205.057938,551.823181 
	C224.105042,556.067993 243.458649,559.084778 262.788940,561.859619 
	C275.624298,563.701965 288.659729,564.150879 301.802795,565.611755 
	C201.742508,566.000000 101.485008,566.000000 1.000000,566.000000 
	C1.000000,473.645905 1.000000,381.291595 1.000000,288.468658 
z"/>
<path fill="#FFFFFF" opacity="1.000000" stroke="none" 
	d="
M314.531342,0.999999 
	C313.999969,1.333203 313.016296,1.892222 311.997437,1.966162 
	C292.955658,3.348067 273.798492,3.797417 254.888870,6.200001 
	C220.799805,10.531225 187.296600,18.034344 155.502106,31.372816 
	C131.722855,41.348724 109.248154,53.748863 89.046425,70.208206 
	C71.260185,84.699532 55.978951,101.325180 43.433308,120.333748 
	C27.261234,144.836945 16.247883,171.756409 10.186822,200.451736 
	C6.923950,215.899399 5.167916,231.678772 3.079350,247.354736 
	C2.188142,254.043839 2.184180,260.851135 1.388520,267.802368 
	C1.000000,179.067032 1.000000,90.134071 1.000000,1.000000 
	C105.354141,1.000000 209.708420,1.000000 314.531342,0.999999 
z"/>
<path fill="#1761E1" opacity="1.000000" stroke="none" 
	d="
M1314.444092,566.000000 
	C1312.827759,565.329895 1311.732056,564.360291 1310.470825,564.037598 
	C1301.417847,561.721130 1295.024902,553.705688 1295.003540,544.409241 
	C1294.986206,536.915161 1295.180298,529.415710 1294.960327,521.928040 
	C1294.572144,508.710388 1306.065063,499.424316 1316.872192,499.834747 
	C1324.008667,500.105743 1330.321045,501.182434 1335.675781,507.729309 
	C1335.675781,496.462616 1335.675781,486.112305 1335.675781,475.383301 
	C1339.203247,475.383301 1342.261353,475.383301 1345.664062,475.383301 
	C1345.664062,504.264801 1345.664062,533.311279 1345.664062,562.679504 
	C1343.009155,562.679504 1340.285400,562.679504 1337.231689,562.679504 
	C1337.231689,560.075195 1337.231689,557.468140 1337.231689,555.424377 
	C1332.169434,558.690186 1327.094604,561.963989 1322.010010,565.618896 
	C1319.629395,566.000000 1317.258911,566.000000 1314.444092,566.000000 
M1327.875488,553.611267 
	C1332.233521,550.674255 1335.487427,546.739929 1335.886353,541.475342 
	C1336.362061,535.196045 1336.197144,528.845276 1335.946899,522.539795 
	C1335.647095,514.984741 1327.137207,507.575439 1319.653931,508.011444 
	C1310.786743,508.528046 1305.054565,514.427185 1305.006714,523.145874 
	C1304.972168,529.461060 1304.939209,535.777466 1305.042480,542.091187 
	C1305.068481,543.671204 1305.347534,545.363464 1305.978638,546.798096 
	C1309.754272,555.381287 1317.354248,557.903687 1327.875488,553.611267 
z"/>
<path fill="#1761E1" opacity="1.000000" stroke="none" 
	d="
M1654.444092,566.000000 
	C1653.665771,565.352539 1653.473022,564.287476 1652.976440,564.119263 
	C1642.777222,560.662903 1638.346191,555.695862 1638.094604,545.502930 
	C1637.733643,530.884277 1638.002441,516.250000 1638.002441,501.312134 
	C1641.339355,501.312134 1644.396118,501.312134 1648.000000,501.312134 
	C1648.000000,513.453979 1647.719849,525.563660 1648.147827,537.648193 
	C1648.303345,542.037720 1649.277344,546.861572 1651.407959,550.619690 
	C1655.621216,558.051270 1670.561523,556.454285 1674.857788,548.072388 
	C1676.578369,544.715637 1677.740967,540.713013 1677.861084,536.962830 
	C1678.238525,525.181702 1678.000000,513.380859 1678.000000,501.295166 
	C1681.373413,501.295166 1684.429688,501.295166 1687.746094,501.295166 
	C1687.746094,521.776794 1687.746094,542.158020 1687.746094,562.753662 
	C1684.483398,562.753662 1681.415283,562.753662 1678.100952,562.753662 
	C1678.100952,560.222839 1678.100952,557.934021 1678.100952,556.661499 
	C1672.867920,559.444153 1667.447266,562.326538 1662.013306,565.604492 
	C1659.629395,566.000000 1657.258911,566.000000 1654.444092,566.000000 
z"/>
<path fill="#1761E1" opacity="1.000000" stroke="none" 
	d="
M2038.000000,548.541931 
	C2031.708618,561.748901 2021.366821,566.471802 2006.892212,564.199646 
	C2000.578369,563.208557 1994.807617,561.616882 1990.054321,557.376648 
	C1989.101929,556.527100 1989.175781,554.527100 1988.776489,553.057495 
	C1991.651733,552.820496 1992.427734,546.531677 1996.383667,550.030334 
	C2001.642944,554.681580 2007.513672,556.380005 2014.442261,556.112244 
	C2019.329346,555.923401 2022.961548,553.971069 2025.960083,550.476746 
	C2029.380127,546.491455 2028.608887,541.026794 2023.711304,539.106873 
	C2017.884155,536.822632 2011.447510,536.099121 2005.607544,533.839539 
	C2001.105713,532.097778 1995.272827,530.047607 1993.238037,526.363586 
	C1986.451538,514.077026 1993.567383,502.808136 2005.886108,500.281769 
	C2011.991089,499.029755 2018.790771,500.100098 2025.079468,501.221649 
	C2028.656250,501.859497 2031.836548,504.720093 2036.503174,507.303772 
	C2034.340088,508.811188 2033.151123,509.442078 2032.210693,510.334808 
	C2030.032959,512.402405 2028.338745,513.267883 2025.164795,511.199371 
	C2019.646118,507.602722 2013.331299,506.783630 2006.859375,508.961670 
	C2002.947510,510.278107 2000.393311,513.238525 2001.260498,517.007141 
	C2001.865845,519.637573 2004.465088,522.744507 2006.955078,523.806946 
	C2011.806396,525.876831 2017.155762,526.929565 2022.391479,527.909729 
	C2028.868042,529.122253 2033.969360,532.067322 2037.666260,537.905396 
	C2038.000000,541.361267 2038.000000,544.722595 2038.000000,548.541931 
z"/>
<path fill="#1761E1" opacity="1.000000" stroke="none" 
	d="
M1365.874390,383.395142 
	C1362.419556,378.888062 1358.896118,374.869812 1356.169922,370.368683 
	C1344.885742,351.738007 1333.865356,332.947693 1322.650513,314.274689 
	C1322.033325,313.246979 1320.541748,312.106750 1319.448608,312.097931 
	C1302.487183,311.960724 1285.524170,312.002045 1268.000000,312.002045 
	C1268.000000,314.116150 1268.000000,315.889404 1268.000000,317.662659 
	C1268.000000,336.657166 1268.014282,355.651672 1267.993286,374.646149 
	C1267.984619,382.553345 1265.534912,384.996277 1257.748535,384.999115 
	C1247.751465,385.002747 1237.754150,385.031525 1227.757202,384.987885 
	C1221.969482,384.962646 1220.003296,382.998260 1220.002808,377.394379 
	C1219.998291,315.079132 1219.997925,252.763870 1220.003784,190.448608 
	C1220.004272,185.135681 1222.012329,183.024124 1227.414429,183.019165 
	C1266.069824,182.983643 1304.736572,182.452637 1343.375854,183.241684 
	C1361.464722,183.611069 1379.429565,186.923462 1394.744141,197.981461 
	C1406.897461,206.756958 1413.666016,218.609344 1413.966553,233.765350 
	C1414.148193,242.925751 1414.091919,252.093826 1413.981079,261.256470 
	C1413.741577,281.057556 1400.837891,295.762207 1384.672119,302.951782 
	C1380.869995,304.642761 1376.889282,305.932281 1372.659668,307.531769 
	C1379.267578,318.444763 1385.662964,328.991302 1392.042847,339.547272 
	C1399.105469,351.232910 1406.231812,362.880951 1413.172729,374.638519 
	C1416.269653,379.884613 1413.463013,384.865540 1407.320068,384.949585 
	C1395.159302,385.116028 1382.994141,385.046844 1370.831909,384.940155 
	C1369.275146,384.926483 1367.725342,384.107697 1365.874390,383.395142 
M1366.017944,238.582748 
	C1363.993530,235.051514 1362.731201,230.602997 1359.797729,228.166321 
	C1351.968262,221.662979 1341.888184,221.397552 1332.376099,221.154770 
	C1312.401978,220.644958 1292.405884,220.994415 1272.418823,221.011887 
	C1270.994751,221.013123 1269.570923,221.183609 1268.224487,221.270386 
	C1268.224487,239.002670 1268.224487,256.269012 1268.224487,274.000000 
	C1283.886597,274.000000 1299.334106,274.244049 1314.769531,273.916168 
	C1325.458618,273.689056 1336.213745,273.291321 1346.792358,271.873260 
	C1365.219360,269.403168 1369.286987,257.113770 1366.017944,238.582748 
z"/>
<path fill="#1761E1" opacity="1.000000" stroke="none" 
	d="
M932.159973,245.325134 
	C932.025940,244.068497 932.003540,243.235413 932.001526,242.402283 
	C931.965759,227.748138 926.025208,219.880798 911.423523,218.223602 
	C897.178772,216.606903 882.722900,215.909012 868.397949,216.281509 
	C859.306091,216.517914 849.862610,218.014557 842.078247,223.975037 
	C836.460754,228.276352 835.555481,234.342468 836.082581,240.696472 
	C836.509155,245.838379 838.694214,250.439850 844.101562,251.940582 
	C853.463623,254.538895 862.917480,256.838379 872.399475,258.966431 
	C898.069092,264.727478 923.966248,269.602905 949.383179,276.307739 
	C962.064697,279.653076 973.186646,287.175720 978.604797,300.312408 
	C979.939575,303.548706 980.777649,307.197510 980.894104,310.688385 
	C981.205200,320.011200 981.123413,329.353271 980.971802,338.683990 
	C980.727600,353.719666 973.212463,364.680176 960.923340,372.487335 
	C945.831177,382.075287 928.895569,385.790344 911.292725,387.000793 
	C901.267212,387.690186 891.204956,389.203888 881.218445,388.817047 
	C861.141785,388.039398 840.928406,387.265900 821.787048,379.998535 
	C806.115295,374.048462 792.046448,365.518127 787.956909,348.087067 
	C785.585815,337.980408 786.321411,327.091003 786.282288,316.551544 
	C786.276672,315.041534 789.744568,312.275513 791.681213,312.205688 
	C803.166077,311.791626 814.673767,311.958710 826.173218,312.024902 
	C829.976501,312.046814 832.348083,313.471497 832.074463,317.974792 
	C831.802856,322.445038 831.681641,327.015411 832.295288,331.430573 
	C833.826416,342.447876 842.369202,346.576294 851.596375,348.863678 
	C868.405396,353.030670 885.553345,353.114685 902.669617,350.941528 
	C908.926392,350.147156 915.139526,348.781586 921.267944,347.256378 
	C930.685608,344.912567 935.529053,337.252502 935.075256,326.882080 
	C934.690735,318.093079 931.268738,312.793091 921.452820,310.121552 
	C908.623596,306.629974 895.567810,303.965149 882.594666,301.009430 
	C862.020874,296.321930 841.159973,292.630554 820.940674,286.734131 
	C804.699341,281.997803 792.397156,270.744049 790.485901,253.183121 
	C788.616638,236.008759 787.656860,218.007767 800.314514,203.425690 
	C807.313110,195.363068 816.553711,190.380295 826.603882,187.017654 
	C840.017212,182.529724 853.818542,180.242859 867.976746,179.966324 
	C875.244507,179.824371 882.525146,178.822266 889.765747,179.100021 
	C908.245361,179.808945 926.682007,181.292465 944.182556,188.001633 
	C960.711975,194.338516 973.798523,204.434006 977.190125,222.878159 
	C978.610840,230.604553 977.994446,238.749237 977.855713,246.695908 
	C977.804565,249.624573 975.383667,251.025085 972.321655,251.014175 
	C961.155273,250.974380 949.988403,250.958878 938.822266,251.021622 
	C935.105103,251.042511 933.095703,249.200302 932.159973,245.325134 
z"/>
<path fill="#1761E1" opacity="1.000000" stroke="none" 
	d="
M1172.975952,291.492798 
	C1172.306274,298.362213 1168.311523,299.164795 1162.649902,299.120117 
	C1131.002930,298.870422 1099.353027,299.000000 1067.352295,299.000000 
	C1067.352295,314.930206 1067.352295,330.654877 1067.352295,347.000000 
	C1069.054810,347.000000 1070.821167,347.000000 1072.587402,347.000000 
	C1107.083008,347.000000 1141.578735,346.997742 1176.074341,347.002045 
	C1182.539795,347.002838 1182.987793,347.441864 1182.997437,353.735840 
	C1183.008301,360.734955 1183.000000,367.734100 1183.000000,374.733215 
	C1183.000000,384.157715 1182.130859,384.999786 1172.402466,384.999939 
	C1161.737183,385.000122 1151.071777,385.000000 1140.406494,385.000000 
	C1103.411133,385.000000 1066.415894,385.001251 1029.420532,384.999115 
	C1020.358459,384.998596 1019.000183,383.675873 1019.000183,374.883789 
	C1018.999878,314.058105 1018.999329,253.232452 1019.000671,192.406784 
	C1019.000854,184.531387 1020.565186,183.000610 1028.600586,183.000443 
	C1075.594604,182.999527 1122.588745,182.999237 1169.582764,183.000763 
	C1177.626831,183.001022 1178.999756,184.382645 1179.000000,192.447296 
	C1179.000244,199.279770 1179.004272,206.112228 1178.998779,212.944702 
	C1178.993042,219.937042 1177.958374,220.996964 1171.077026,220.997940 
	C1138.414429,221.002563 1105.751953,221.000000 1073.089355,221.000000 
	C1071.276611,221.000000 1069.463867,221.000000 1067.326416,221.000000 
	C1067.326416,234.982803 1067.326416,248.707397 1067.326416,263.000000 
	C1069.114380,263.000000 1070.887695,263.000000 1072.661011,263.000000 
	C1103.157104,263.000000 1133.653320,262.999634 1164.149414,263.000214 
	C1171.342529,263.000366 1172.948120,264.615387 1172.991821,272.044739 
	C1173.029175,278.377075 1172.996460,284.709839 1172.975952,291.492798 
z"/>
<path fill="#1761E1" opacity="1.000000" stroke="none" 
	d="
M1810.997314,263.000000 
	C1815.829102,263.000061 1820.165771,263.118164 1824.492798,262.966064 
	C1828.580688,262.822357 1830.114868,264.669678 1830.042969,268.655945 
	C1829.898682,276.651733 1829.819580,284.657532 1830.068237,292.648163 
	C1830.215576,297.384125 1828.453735,299.091827 1823.688477,299.070557 
	C1792.862061,298.932770 1762.034668,299.000000 1731.207642,299.000000 
	C1729.383301,299.000000 1727.559082,299.000000 1725.368408,299.000000 
	C1725.368408,314.895966 1725.368408,330.620209 1725.368408,347.000000 
	C1727.014648,347.000000 1728.776001,347.000000 1730.537354,347.000000 
	C1765.030273,347.000000 1799.523315,346.997894 1834.016235,347.001801 
	C1840.685181,347.002563 1840.994751,347.327393 1840.999023,354.176788 
	C1841.003662,361.841888 1841.005615,369.507019 1840.998047,377.172119 
	C1840.992188,383.124969 1839.127441,384.959320 1832.963989,384.992889 
	C1826.965332,385.025543 1820.966431,385.000000 1814.967651,385.000000 
	C1771.976440,385.000000 1728.985107,385.001801 1685.993896,384.998291 
	C1678.720337,384.997681 1677.001953,383.275543 1677.001587,375.987671 
	C1676.998779,314.666809 1676.998901,253.345932 1677.001587,192.025070 
	C1677.001953,184.726151 1678.716309,183.002304 1685.981201,183.001770 
	C1733.304932,182.998306 1780.628540,182.998459 1827.952271,183.001572 
	C1835.499878,183.002060 1836.998779,184.471390 1836.999756,191.815765 
	C1837.000732,199.147614 1837.018921,206.479507 1836.994019,213.811279 
	C1836.974121,219.686844 1835.663208,220.991852 1829.711182,220.994095 
	C1796.884521,221.006424 1764.057861,221.000000 1731.231201,221.000000 
	C1729.405273,221.000000 1727.579224,221.000000 1725.376831,221.000000 
	C1725.376831,234.878296 1725.376831,248.603271 1725.376831,263.000000 
	C1753.660645,263.000000 1782.079346,263.000000 1810.997314,263.000000 
z"/>
<path fill="#1761E1" opacity="1.000000" stroke="none" 
	d="
M1449.933716,342.946716 
	C1449.590088,340.592468 1449.040527,338.673126 1449.037720,336.752991 
	C1448.986084,301.593445 1448.767822,266.431427 1449.121826,231.275345 
	C1449.251465,218.391205 1455.384399,208.074020 1465.410278,199.821991 
	C1480.431763,187.457977 1498.219360,182.915070 1516.919312,181.081436 
	C1528.562744,179.939743 1540.330200,178.720581 1551.972534,179.204910 
	C1573.360596,180.094620 1594.703003,182.247162 1613.978638,193.008347 
	C1630.485962,202.224091 1640.360229,215.578384 1640.013184,235.232529 
	C1639.924805,240.229965 1639.797729,245.240921 1640.059448,250.226166 
	C1640.299316,254.794037 1637.637939,256.802582 1633.903564,256.894653 
	C1622.579468,257.173889 1611.241333,257.135956 1599.914307,256.920105 
	C1595.582275,256.837555 1593.097778,253.333542 1592.997559,248.333450 
	C1592.880127,242.475449 1593.582153,236.650131 1589.904419,231.216751 
	C1586.246582,225.812515 1580.995850,222.701035 1575.303955,221.327835 
	C1554.897827,216.404770 1534.221924,215.741989 1513.934692,221.696716 
	C1498.720581,226.162369 1496.524292,234.342606 1496.198242,246.476669 
	C1495.535767,271.120605 1495.867554,295.795807 1496.047485,320.456238 
	C1496.164551,336.502930 1504.484497,346.029205 1520.595337,347.871948 
	C1532.203735,349.199738 1543.979248,350.174957 1555.623657,349.751587 
	C1566.251343,349.365173 1577.095093,348.070312 1585.966797,340.654846 
	C1590.688232,336.708282 1592.932251,331.913910 1592.993896,325.923706 
	C1593.028198,322.591400 1592.916504,319.255829 1593.020142,315.926361 
	C1593.170044,311.109680 1595.283569,309.018555 1599.938477,309.008118 
	C1611.102905,308.983093 1622.267578,308.962311 1633.431763,309.016174 
	C1638.955078,309.042786 1640.093628,310.172363 1639.974243,315.726135 
	C1639.782593,324.649719 1640.219849,333.683624 1638.961792,342.466156 
	C1636.751099,357.899963 1626.580688,367.879120 1613.501709,375.050018 
	C1600.329102,382.272308 1586.040527,385.910431 1571.088379,386.998108 
	C1561.730835,387.678802 1552.341919,389.164368 1543.018433,388.835236 
	C1520.297241,388.033081 1497.499756,386.512329 1476.746582,375.855957 
	C1463.342529,368.973114 1453.521729,358.639282 1449.933716,342.946716 
z"/>
<path fill="#1761E1" opacity="1.000000" stroke="none" 
	d="
M1878.000000,295.000000 
	C1878.000000,260.023376 1877.998535,225.546738 1878.001343,191.070114 
	C1878.001831,184.444565 1879.459717,183.003601 1886.146484,183.001068 
	C1896.639404,182.997101 1907.132202,182.988876 1917.625122,183.004532 
	C1923.199829,183.012848 1924.994507,184.791138 1924.995361,190.342773 
	C1925.003296,240.308899 1925.000000,290.275024 1925.000000,340.241150 
	C1925.000000,342.235809 1925.000000,344.230469 1925.000000,347.000000 
	C1926.874512,347.000000 1928.618164,347.000000 1930.361816,347.000000 
	C1962.506714,347.000000 1994.651489,346.998505 2026.796387,347.001221 
	C2033.674072,347.001801 2033.992432,347.309357 2033.998413,353.951019 
	C2034.005737,361.945587 2034.016968,369.940247 2033.993652,377.934723 
	C2033.979736,382.680450 2031.966797,384.750458 2027.206177,384.993042 
	C2026.375488,385.035370 2025.540894,384.999939 2024.708130,384.999939 
	C1978.905884,384.999969 1933.103516,385.001007 1887.301270,384.999054 
	C1879.473633,384.998749 1878.000488,383.559509 1878.000366,375.945435 
	C1877.999878,349.130280 1878.000000,322.315155 1878.000000,295.000000 
z"/>
<path fill="#1761E1" opacity="1.000000" stroke="none" 
	d="
M1612.535034,519.206665 
	C1623.354248,527.014587 1624.165894,537.646667 1620.534790,548.578491 
	C1617.545166,557.579468 1609.711426,562.344788 1600.518921,562.821472 
	C1587.249146,563.509644 1573.917114,562.997437 1560.306885,562.997437 
	C1560.306885,533.644287 1560.306885,504.589203 1560.306885,476.017914 
	C1575.081055,476.017914 1589.954468,474.601349 1604.408569,476.454651 
	C1616.533447,478.009247 1621.920532,489.264038 1619.436646,502.038269 
	C1618.124756,508.785645 1614.231201,513.764099 1607.063721,516.994934 
	C1609.367432,517.911438 1610.786865,518.476196 1612.535034,519.206665 
M1571.123169,523.786987 
	C1571.123169,533.719788 1571.123169,543.652588 1571.123169,554.461182 
	C1580.877197,553.952759 1590.288574,553.955322 1599.560913,552.820190 
	C1606.746704,551.940613 1612.570190,544.106384 1611.837280,537.568115 
	C1610.734253,527.727356 1603.504639,523.040955 1596.266968,523.015686 
	C1588.114014,522.987244 1579.960571,523.079773 1571.123169,523.786987 
M1594.170044,513.000000 
	C1601.864136,512.512756 1608.171509,507.481506 1608.991089,501.177826 
	C1609.957520,493.744751 1606.333740,486.472473 1599.573364,485.444336 
	C1590.241455,484.025177 1580.681763,484.103577 1571.393921,483.550934 
	C1571.393921,494.123535 1571.393921,503.506104 1571.393921,513.000000 
	C1578.937256,513.000000 1586.087280,513.000000 1594.170044,513.000000 
z"/>
<path fill="#1761E1" opacity="1.000000" stroke="none" 
	d="
M1060.264893,531.613892 
	C1064.258545,542.136536 1068.055908,552.311707 1071.854004,562.488525 
	C1071.213013,562.755554 1070.953491,562.954346 1070.689575,562.960510 
	C1060.324951,563.200745 1060.389893,563.176453 1056.922119,552.956360 
	C1055.258179,548.052368 1053.295532,543.249634 1051.318359,538.003662 
	C1040.828369,538.003662 1030.019165,537.922241 1019.215515,538.127808 
	C1018.117493,538.148621 1016.554626,539.687744 1016.056763,540.877625 
	C1013.680359,546.557251 1011.146118,552.238647 1009.559631,558.158447 
	C1008.393799,562.508545 1006.161255,563.547485 1002.226379,563.034912 
	C1000.608276,562.824158 998.939880,563.000000 996.485229,563.000000 
	C1007.605774,533.361450 1018.508850,504.302429 1029.392822,475.294403 
	C1029.818848,475.189606 1030.136719,475.047913 1030.457031,475.041931 
	C1039.950439,474.864868 1039.836792,474.907227 1042.949463,483.694611 
	C1048.576416,499.580048 1054.354004,515.412109 1060.264893,531.613892 
M1037.002930,496.545074 
	C1036.221680,494.462463 1035.440308,492.379883 1034.257446,489.226685 
	C1029.265991,503.099579 1024.696777,515.798950 1020.055359,528.698975 
	C1029.470825,528.698975 1038.633179,528.698975 1048.360596,528.698975 
	C1044.494263,517.951111 1040.787231,507.646332 1037.002930,496.545074 
z"/>
<path fill="#1761E1" opacity="1.000000" stroke="none" 
	d="
M1174.290527,488.337952 
	C1166.265747,511.711182 1158.456665,534.741516 1150.640381,557.769470 
	C1149.968140,559.750183 1149.248169,561.714600 1148.526001,563.755188 
	C1148.078491,563.829956 1147.594971,563.974487 1147.109375,563.982361 
	C1138.227905,564.125854 1138.172363,564.140991 1135.373291,555.773499 
	C1126.575562,529.473206 1117.822388,503.158020 1109.068604,476.843079 
	C1108.971924,476.552673 1109.098999,476.187897 1109.179565,475.013611 
	C1112.111450,475.013611 1115.213501,474.654449 1118.151001,475.192841 
	C1119.303589,475.404114 1120.497925,477.490387 1120.978027,478.951202 
	C1128.063843,500.511841 1135.031860,522.111267 1142.036011,543.698730 
	C1142.173584,544.122986 1142.412964,544.514282 1143.015869,545.792114 
	C1143.901611,544.205811 1144.642212,543.258850 1144.998779,542.184326 
	C1151.687622,522.027344 1158.589722,501.934631 1164.811890,481.633789 
	C1166.487061,476.168610 1168.847290,473.969421 1174.317139,474.981232 
	C1175.432617,475.187531 1176.592896,475.152069 1178.491455,475.278625 
	C1177.089600,479.749908 1175.797119,483.872131 1174.290527,488.337952 
z"/>
<path fill="#1761E1" opacity="1.000000" stroke="none" 
	d="
M1411.232178,563.997925 
	C1396.841309,560.615845 1392.459106,550.700623 1392.091919,538.261169 
	C1391.903076,531.857239 1392.441162,525.402893 1393.059692,519.010986 
	C1393.929199,510.028381 1403.868652,500.560638 1413.233643,500.099731 
	C1419.888184,499.772217 1426.610718,499.228973 1432.944336,502.889496 
	C1440.016479,506.976776 1443.072144,513.227356 1443.917603,520.799561 
	C1444.375854,524.903564 1443.999268,529.100830 1443.999268,533.745728 
	C1430.458984,533.745728 1417.069214,533.745728 1403.796509,533.745728 
	C1401.651245,543.138611 1403.586914,549.835388 1409.114136,553.020874 
	C1418.317749,558.325256 1426.152222,556.957031 1435.500732,548.166443 
	C1437.952393,549.592651 1440.513794,551.082703 1443.066406,552.567627 
	C1437.478760,562.866089 1423.233398,567.194153 1411.232178,563.997925 
M1405.756836,526.998535 
	C1415.047974,526.998535 1424.338989,526.998535 1433.568726,526.998535 
	C1434.735474,516.692322 1430.427490,510.461823 1420.531372,508.306671 
	C1415.276367,507.162231 1406.272339,510.701721 1403.706787,518.914429 
	C1402.886841,521.538696 1401.096558,524.778809 1405.756836,526.998535 
z"/>
<path fill="#1761E1" opacity="1.000000" stroke="none" 
	d="
M1875.484375,561.797180 
	C1866.862915,556.419128 1863.464722,548.812256 1863.986328,539.204956 
	C1864.370239,532.134766 1864.009888,524.962219 1865.084473,518.005676 
	C1866.809937,506.834839 1875.560547,501.213715 1884.935425,500.169586 
	C1891.839966,499.400513 1898.907104,499.358948 1905.332397,503.609772 
	C1910.951538,507.327209 1914.109741,512.377869 1914.869751,518.737732 
	C1915.452637,523.615784 1914.985596,528.619263 1914.985596,533.864746 
	C1901.274536,533.864746 1888.012451,533.864746 1874.833008,533.864746 
	C1872.604736,542.475769 1874.935059,549.488892 1881.238281,553.693909 
	C1888.036865,558.229370 1896.824951,556.307617 1906.938110,548.041138 
	C1909.258423,549.450623 1911.593018,550.868713 1913.856201,552.243408 
	C1911.860962,562.305176 1892.167358,569.245056 1875.484375,561.797180 
M1894.282349,508.988342 
	C1885.780518,504.723236 1871.187744,515.192444 1874.553955,526.745728 
	C1884.564087,526.745728 1894.603882,526.745728 1904.613892,526.745728 
	C1905.654297,517.112488 1903.661621,513.472046 1894.282349,508.988342 
z"/>
<path fill="#1761E1" opacity="1.000000" stroke="none" 
	d="
M1460.000000,546.997314 
	C1460.000000,531.535217 1460.000000,516.572327 1460.000000,501.305725 
	C1463.357788,501.305725 1466.420532,501.305725 1469.847900,501.305725 
	C1469.944092,503.437897 1470.038574,505.533478 1470.170776,508.464142 
	C1473.006226,506.332123 1475.309937,504.410675 1477.795410,502.763519 
	C1489.184204,495.215790 1505.439819,500.419342 1509.313599,512.795471 
	C1509.553345,513.561279 1509.965576,514.333984 1509.967407,515.104309 
	C1510.005981,530.891052 1509.996338,546.677917 1509.996338,562.730957 
	C1506.572998,562.730957 1503.516846,562.730957 1500.000000,562.730957 
	C1500.000000,549.609924 1499.751709,536.658020 1500.082397,523.720947 
	C1500.325073,514.230591 1494.947876,509.469177 1489.690796,509.008331 
	C1480.202881,508.176636 1471.714722,513.918457 1471.125977,522.548340 
	C1470.292725,534.759399 1470.331299,547.029968 1470.003540,559.275330 
	C1469.977051,560.265015 1470.000000,561.255981 1470.000000,562.623169 
	C1466.786743,562.623169 1463.731201,562.623169 1460.000000,562.623169 
	C1460.000000,557.686401 1460.000000,552.591492 1460.000000,546.997314 
z"/>
<path fill="#1761E1" opacity="1.000000" stroke="none" 
	d="
M1798.000000,536.000000 
	C1798.014771,524.500854 1798.027588,513.501770 1798.055786,502.502655 
	C1798.056519,502.196564 1798.224854,501.890900 1798.400879,501.294312 
	C1801.384155,501.294312 1804.448975,501.294312 1807.843018,501.294312 
	C1807.942261,503.459930 1808.038086,505.552521 1808.135498,507.677826 
	C1812.441772,505.302551 1816.346313,501.987183 1820.793823,500.907257 
	C1835.853638,497.250397 1847.776245,502.478729 1847.967896,520.571655 
	C1848.112549,534.235474 1847.967041,547.902466 1847.934814,561.568054 
	C1847.934082,561.868286 1847.741821,562.168213 1847.548462,562.731567 
	C1844.569824,562.731567 1841.512207,562.731567 1838.000000,562.731567 
	C1838.000000,549.759888 1838.003174,536.970825 1837.998901,524.181702 
	C1837.996216,516.274719 1833.773560,509.742523 1828.203613,509.009674 
	C1818.395508,507.719116 1810.675781,512.450867 1809.110718,521.525818 
	C1808.110596,527.325989 1808.167358,533.332703 1808.040161,539.253052 
	C1807.875610,546.909241 1808.000000,554.571655 1808.000000,562.615356 
	C1804.800049,562.615356 1801.743286,562.615356 1798.000000,562.615356 
	C1798.000000,554.028503 1798.000000,545.264221 1798.000000,536.000000 
z"/>
<path fill="#1761E1" opacity="1.000000" stroke="none" 
	d="
M1966.087646,549.711914 
	C1969.195190,541.618286 1964.724854,538.321655 1955.287598,536.031677 
	C1951.189941,535.037415 1946.946533,534.579285 1942.916504,533.382385 
	C1933.153564,530.482727 1929.536987,525.395203 1930.000366,515.879639 
	C1930.345093,508.795837 1937.322510,501.435425 1945.221558,500.057373 
	C1953.931396,498.537842 1962.475464,498.925934 1970.182617,503.776947 
	C1971.759033,504.768982 1973.650269,507.196320 1973.432251,508.671722 
	C1973.061279,511.180725 1967.227051,512.906250 1965.215576,511.733704 
	C1958.709595,507.941467 1951.814819,505.775391 1944.859497,509.883362 
	C1942.602539,511.216492 1940.518799,514.589783 1940.355957,517.156799 
	C1940.230591,519.131531 1942.827393,522.368408 1944.933716,523.183594 
	C1950.478394,525.329468 1956.354004,526.778259 1962.212036,527.916565 
	C1969.657959,529.363525 1976.082764,534.086914 1976.981812,539.527344 
	C1978.567139,549.122498 1975.105347,556.688477 1967.626831,561.116882 
	C1956.469360,567.723816 1934.990479,565.683289 1926.744385,553.862793 
	C1927.805054,553.074341 1929.074585,552.283142 1930.160645,551.290955 
	C1932.312378,549.325378 1934.087158,548.721619 1936.827393,550.874939 
	C1943.544312,556.153503 1951.294067,557.681030 1959.435547,554.878052 
	C1961.876343,554.037720 1963.813110,551.732849 1966.087646,549.711914 
z"/>
<path fill="#1761E1" opacity="1.000000" stroke="none" 
	d="
M1711.245605,529.752075 
	C1704.698975,525.483154 1703.693848,513.371704 1709.346802,507.203674 
	C1715.412231,500.585205 1722.858276,498.527374 1731.884399,499.745422 
	C1738.758911,500.673187 1745.224365,501.446289 1750.303223,508.149292 
	C1749.344482,508.814514 1748.152466,509.441833 1747.212036,510.334381 
	C1745.031982,512.403564 1743.336670,513.265381 1740.161621,511.197632 
	C1734.638428,507.600800 1728.318237,506.778198 1721.844849,508.965912 
	C1717.934692,510.287354 1715.381958,513.258362 1716.260864,517.028137 
	C1716.873779,519.656799 1719.491455,522.863586 1721.974487,523.804443 
	C1728.137573,526.139648 1734.750000,527.274780 1741.157104,528.984863 
	C1748.014526,530.815125 1752.202026,535.214355 1752.955444,542.340576 
	C1753.810669,550.430847 1750.042358,557.544312 1743.463257,560.832520 
	C1730.885986,567.118469 1718.603638,566.071411 1706.841309,558.832092 
	C1705.184814,557.812561 1703.155640,554.329407 1703.713501,553.317566 
	C1706.027466,549.119934 1709.846436,548.652954 1712.965820,551.487427 
	C1719.243896,557.192505 1735.038330,558.517029 1740.811523,550.787354 
	C1744.119995,546.357605 1743.686646,541.156311 1738.546265,539.062805 
	C1733.046265,536.822754 1727.072388,535.773682 1721.382812,533.961426 
	C1718.018677,532.889832 1714.804565,531.346802 1711.245605,529.752075 
z"/>
<path fill="#1761E1" opacity="1.000000" stroke="none" 
	d="
M1255.999023,503.103455 
	C1256.000000,505.549286 1256.000000,507.527588 1256.000000,509.461395 
	C1251.563965,509.744995 1247.300171,509.369537 1243.407227,510.397614 
	C1234.540039,512.739258 1229.265747,520.014709 1229.046509,530.782288 
	C1228.833008,541.266418 1229.000000,551.758301 1229.000000,562.623047 
	C1225.785645,562.623047 1222.729004,562.623047 1219.328247,562.623047 
	C1219.328247,542.373291 1219.328247,521.980591 1219.328247,501.293091 
	C1222.381714,501.293091 1225.441895,501.293091 1229.159180,501.293091 
	C1229.159180,504.201843 1229.159180,507.032532 1229.159180,510.951477 
	C1235.808838,502.422272 1243.651611,499.314697 1253.009521,500.108307 
	C1254.069458,500.198212 1255.004761,501.757782 1255.999023,503.103455 
z"/>
<path fill="#1761E1" opacity="1.000000" stroke="none" 
	d="
M1190.000000,522.000122 
	C1190.000000,514.879028 1190.000000,508.257996 1190.000000,501.319885 
	C1193.318237,501.319885 1196.368530,501.319885 1199.714600,501.319885 
	C1199.714600,521.670288 1199.714600,542.013977 1199.714600,562.679504 
	C1196.683228,562.679504 1193.631348,562.679504 1190.000000,562.679504 
	C1190.000000,549.286926 1190.000000,535.893494 1190.000000,522.000122 
z"/>
<path fill="#1761E1" opacity="1.000000" stroke="none" 
	d="
M1277.991699,560.749146 
	C1274.974121,562.071899 1271.962891,562.919067 1268.356445,563.933716 
	C1268.356445,542.476929 1268.356445,522.126892 1268.356445,501.387695 
	C1271.189819,501.387695 1274.243164,501.387695 1277.998291,501.387695 
	C1277.998291,520.883118 1277.998291,540.578369 1277.991699,560.749146 
z"/>
<path fill="#1761E1" opacity="1.000000" stroke="none" 
	d="
M1370.059326,501.000153 
	C1372.160767,501.000000 1373.793335,501.000000 1375.711426,501.000000 
	C1375.711426,521.671021 1375.711426,542.021362 1375.711426,562.686523 
	C1372.668335,562.686523 1369.615723,562.686523 1366.000000,562.686523 
	C1366.000000,558.241638 1366.000000,553.808167 1366.000000,549.374756 
	C1366.000000,534.587097 1366.052246,519.799072 1365.952637,505.012115 
	C1365.934326,502.288849 1366.180664,500.356934 1370.059326,501.000153 
z"/>
<path fill="#1761E1" opacity="1.000000" stroke="none" 
	d="
M1779.000000,519.000977 
	C1779.000000,533.768005 1779.000000,548.035339 1779.000000,562.650757 
	C1775.739258,562.650757 1772.689331,562.650757 1769.312866,562.650757 
	C1769.312866,542.389526 1769.312866,522.045288 1769.312866,501.349792 
	C1772.260620,501.349792 1775.312866,501.349792 1779.000000,501.349792 
	C1779.000000,507.002075 1779.000000,512.751709 1779.000000,519.000977 
z"/>
<path fill="#1761E1" opacity="1.000000" stroke="none" 
	d="
M1272.998291,475.000000 
	C1274.770752,475.000000 1276.069580,475.000000 1277.683594,475.000000 
	C1277.683594,479.622833 1277.683594,483.987244 1277.683594,488.678345 
	C1274.703125,488.678345 1271.663208,488.678345 1268.308228,488.678345 
	C1268.308228,484.361542 1268.308228,479.996887 1268.308228,475.265930 
	C1269.682617,475.179260 1271.103760,475.089630 1272.998291,475.000000 
z"/>
<path fill="#1761E1" opacity="1.000000" stroke="none" 
	d="
M1375.566162,475.476074 
	C1375.885620,480.068420 1375.885620,484.315094 1375.885620,488.775391 
	C1372.631104,488.775391 1369.707642,488.775391 1366.389771,488.775391 
	C1366.389771,484.401184 1366.389771,479.920319 1366.389771,475.130463 
	C1369.391602,475.130463 1372.319214,475.130463 1375.566162,475.476074 
z"/>
<path fill="#1761E1" opacity="1.000000" stroke="none" 
	d="
M1769.000000,481.044250 
	C1769.000000,478.936279 1769.000000,477.304352 1769.000000,475.336914 
	C1772.268188,475.336914 1775.307617,475.336914 1778.677002,475.336914 
	C1778.677002,479.605164 1778.677002,483.968750 1778.677002,488.670349 
	C1775.718994,488.670349 1772.679443,488.670349 1769.000000,488.670349 
	C1769.000000,486.338257 1769.000000,483.929260 1769.000000,481.044250 
z"/>
<path fill="#1761E1" opacity="1.000000" stroke="none" 
	d="
M1190.000977,485.817444 
	C1190.000000,482.071960 1190.000000,478.805237 1190.000000,475.271729 
	C1193.397095,475.271729 1196.434448,475.271729 1199.738281,475.271729 
	C1199.738281,479.738037 1199.738281,484.101440 1199.738281,489.152435 
	C1196.477417,487.466919 1192.046021,492.166779 1190.000977,485.817444 
z"/>
<path fill="#FFFFFF" opacity="1.000000" stroke="none" 
	d="
M1327.524780,553.789185 
	C1317.354248,557.903687 1309.754272,555.381287 1305.978638,546.798096 
	C1305.347534,545.363464 1305.068481,543.671204 1305.042480,542.091187 
	C1304.939209,535.777466 1304.972168,529.461060 1305.006714,523.145874 
	C1305.054565,514.427185 1310.786743,508.528046 1319.653931,508.011444 
	C1327.137207,507.575439 1335.647095,514.984741 1335.946899,522.539795 
	C1336.197144,528.845276 1336.362061,535.196045 1335.886353,541.475342 
	C1335.487427,546.739929 1332.233521,550.674255 1327.524780,553.789185 
z"/>
<path fill="#FFFFFF" opacity="1.000000" stroke="none" 
	d="
M1366.064697,239.017319 
	C1369.286987,257.113770 1365.219360,269.403168 1346.792358,271.873260 
	C1336.213745,273.291321 1325.458618,273.689056 1314.769531,273.916168 
	C1299.334106,274.244049 1283.886597,274.000000 1268.224487,274.000000 
	C1268.224487,256.269012 1268.224487,239.002670 1268.224487,221.270386 
	C1269.570923,221.183609 1270.994751,221.013123 1272.418823,221.011887 
	C1292.405884,220.994415 1312.401978,220.644958 1332.376099,221.154770 
	C1341.888184,221.397552 1351.968262,221.662979 1359.797729,228.166321 
	C1362.731201,230.602997 1363.993530,235.051514 1366.064697,239.017319 
z"/>
<path fill="#FFFFFF" opacity="1.000000" stroke="none" 
	d="
M1571.465332,523.453369 
	C1579.960571,523.079773 1588.114014,522.987244 1596.266968,523.015686 
	C1603.504639,523.040955 1610.734253,527.727356 1611.837280,537.568115 
	C1612.570190,544.106384 1606.746704,551.940613 1599.560913,552.820190 
	C1590.288574,553.955322 1580.877197,553.952759 1571.123169,554.461182 
	C1571.123169,543.652588 1571.123169,533.719788 1571.465332,523.453369 
z"/>
<path fill="#FFFFFF" opacity="1.000000" stroke="none" 
	d="
M1593.703613,513.000000 
	C1586.087280,513.000000 1578.937256,513.000000 1571.393921,513.000000 
	C1571.393921,503.506104 1571.393921,494.123535 1571.393921,483.550934 
	C1580.681763,484.103577 1590.241455,484.025177 1599.573364,485.444336 
	C1606.333740,486.472473 1609.957520,493.744751 1608.991089,501.177826 
	C1608.171509,507.481506 1601.864136,512.512756 1593.703613,513.000000 
z"/>
<path fill="#FFFFFF" opacity="1.000000" stroke="none" 
	d="
M1037.041504,496.943298 
	C1040.787231,507.646332 1044.494263,517.951111 1048.360596,528.698975 
	C1038.633179,528.698975 1029.470825,528.698975 1020.055359,528.698975 
	C1024.696777,515.798950 1029.265991,503.099579 1034.257446,489.226685 
	C1035.440308,492.379883 1036.221680,494.462463 1037.041504,496.943298 
z"/>
<path fill="#FFFFFF" opacity="1.000000" stroke="none" 
	d="
M1405.287231,526.993164 
	C1401.096558,524.778809 1402.886841,521.538696 1403.706787,518.914429 
	C1406.272339,510.701721 1415.276367,507.162231 1420.531372,508.306671 
	C1430.427490,510.461823 1434.735474,516.692322 1433.568726,526.998535 
	C1424.338989,526.998535 1415.047974,526.998535 1405.287231,526.993164 
z"/>
<path fill="#FFFFFF" opacity="1.000000" stroke="none" 
	d="
M1894.687012,509.016907 
	C1903.661621,513.472046 1905.654297,517.112488 1904.613892,526.745728 
	C1894.603882,526.745728 1884.564087,526.745728 1874.553955,526.745728 
	C1871.187744,515.192444 1885.780518,504.723236 1894.687012,509.016907 
z"/>
</svg>