<?xml version="1.0" encoding="utf-8"?>
<!-- Generator: Adobe Illustrator 27.1.0, SVG Export Plug-In . SVG Version: 6.00 Build 0)  -->
<svg version="1.1" id="Layer_1" xmlns="http://www.w3.org/2000/svg" xmlns:xlink="http://www.w3.org/1999/xlink" x="0px" y="0px"
	 viewBox="0 0 350 110" style="enable-background:new 0 0 350 110;" xml:space="preserve">
<style type="text/css">
	.st0{fill:#EDEDEE;}
	.st1{fill:none;}
	.st2{fill:#ED1C2E;}
	.st3{clip-path:url(#SVGID_00000026855336085069649500000014950412054538697089_);}
	.st4{clip-path:url(#SVGID_00000183243691089322658700000012198831845360508034_);}
	.st5{clip-path:url(#SVGID_00000031926157223855844920000006440852827712192950_);}
	.st6{clip-path:url(#SVGID_00000031926157223855844920000006440852827712192950_);fill:#ED1C2E;}
	.st7{fill:none;stroke:#000000;stroke-width:0.227;stroke-dasharray:3.236,3.236;}
	.st8{fill:none;stroke:#000000;stroke-width:0.227;stroke-dasharray:2.801,2.801;}
	.st9{fill:none;stroke:#000000;stroke-width:0.227;}
	.st10{fill:none;stroke:#000000;stroke-width:0.227;stroke-dasharray:3.097,3.097;}
	.st11{fill:none;stroke:#000000;stroke-width:0.227;stroke-dasharray:3.157,3.157;}
	.st12{fill:none;stroke:#000000;stroke-width:0.227;stroke-dasharray:3.009,3.009;}
	.st13{clip-path:url(#SVGID_00000146494860770279380590000011882604671767502746_);}
	.st14{clip-path:url(#SVGID_00000053512166919243107280000015060817318204580238_);}
	.st15{clip-path:url(#SVGID_00000141425795592801292900000006499400512767062151_);}
	.st16{clip-path:url(#SVGID_00000141425795592801292900000006499400512767062151_);fill:#ED1C2E;}
	.st17{fill:none;stroke:#000000;stroke-width:0.227;stroke-dasharray:3.062,3.062;}
	.st18{fill:none;stroke:#000000;stroke-width:0.227;stroke-dasharray:2.943,2.943;}
	.st19{fill:none;stroke:#000000;stroke-width:0.227;stroke-dasharray:3.087,3.087;}
	.st20{fill:none;stroke:#000000;stroke-width:0.227;stroke-dasharray:3.063,3.063;}
	.st21{fill:none;stroke:#000000;stroke-width:0.227;stroke-dasharray:2.926,2.926;}
	.st22{fill:none;stroke:#000000;stroke-width:0.227;stroke-dasharray:2.911,2.911;}
	.st23{fill:none;stroke:#ED1C2E;stroke-width:0.25;}
	.st24{clip-path:url(#SVGID_00000148634040144373900060000012776292974832356008_);fill:#ED1C2E;}
	.st25{clip-path:url(#SVGID_00000122679607955756882430000008248220614378155151_);fill:#006D38;}
</style>
<g>
	<path d="M137.6,49.1c-7.1,0-11.3-5.1-11.3-11.9c0-6.8,4.3-12.1,11.2-12.1c2.4,0,4.7,0.3,7.2,1.8l0.5-5.6c-2.4-1-5.3-1.4-7.5-1.4
		c-11.3,0-18.3,6.4-18.3,17.8c0,11.2,7.5,16.6,18.3,16.6c2.5,0,5.2-0.5,7.6-1.1l-0.3-5.6C143.3,48.5,140.2,49.1,137.6,49.1"/>
	<path d="M163.7,28.6c-3.3,0-6.1,1.5-7.7,3.9h-0.1V18h-6.4v35.7h6.4v-12c0-3.1,1-8.2,5.6-8.2c4.1,0,4.2,4,4.2,7v13.1h6.4V38.3
		C172.1,32.7,169.6,28.6,163.7,28.6"/>
	<rect x="177.9" y="18.6" width="6.4" height="6.1"/>
	<rect x="177.9" y="29.2" width="6.4" height="24.5"/>
	<path d="M206.2,48.2c-1.1,0.5-3.1,1.1-4.9,1.1c-4.5,0-6.6-3.5-6.6-8c0-4.6,2.5-7.8,6.5-7.8c2,0,3.2,0.4,4.4,0.9l0.6-5.1
		c-1.8-0.5-3.6-0.8-6.2-0.8c-7.7,0-11.9,5.6-11.9,12.7c0,7.5,4.1,13,12.1,13c2.6,0,4.5-0.2,6.4-0.8L206.2,48.2z"/>
	<path d="M224.2,47.5c-1,1.3-2.5,2.2-4.5,2.2c-2.3,0-4.1-0.9-4.1-3c0-3.8,4.2-4.2,7.1-4.2h2.8C225.5,44.3,225.3,46.1,224.2,47.5
		 M231.5,48.3c-0.1-1.8-0.1-3.7-0.1-6.1V39c0-7.2-3.1-10.3-10.6-10.3c-2.7,0-6.1,0.7-8.6,1.9l0.2,5.5c2.2-1.6,4.9-2.7,7.6-2.7
		c3.8,0,5.6,1.3,5.6,5.3H222c-2.7,0-5.8,0.2-8.3,1.4c-2.4,1.2-4.2,3.3-4.2,7c0,4.7,4.2,7.3,8.6,7.3c2.9,0,6.1-1.5,7.6-4.2h0.1
		c0,0.8,0,2.4,0.3,3.7h5.7C231.6,51.8,231.5,50.1,231.5,48.3"/>
	<path d="M247.9,33.6c3.7,0,5.4,3.4,5.4,7.6c0,4.1-1.6,7.6-5.6,7.6c-3.7,0-5.4-4.1-5.4-7.4C242.2,37.6,243.5,33.6,247.9,33.6
		 M245.5,53.7c3.6,0,6.5-1.8,7.7-3.9h0.1c0,4.2-0.3,9.5-7.4,9.5c-2,0-5.2-1.1-7.2-2.1l-0.5,5.4c3,1.3,6,1.7,8.5,1.7
		c10.3,0,13-6.3,13-13V29.2h-6.1v3.3h-0.1c-1.8-2.8-4.3-3.9-7.6-3.9c-7.4,0-10.4,6.8-10.4,12.7C235.4,47.9,238.2,53.7,245.5,53.7"/>
	<path d="M270.4,40.9c0-3.7,2-7.3,6.2-7.3c4.2,0,6.2,3.5,6.2,7.3c0,4.1-1.3,8.5-6.2,8.5C271.7,49.4,270.4,44.9,270.4,40.9
		 M289.5,41.6c0-8.1-5.6-13-12.9-13c-7.3,0-12.9,4.9-12.9,13c0,7.1,4.7,12.7,12.9,12.7C284.7,54.3,289.5,48.7,289.5,41.6"/>
	<path d="M130.8,75.7h-2.3V65.6h2.3c3.4,0,6.4,1.3,6.4,5.2C137.2,74.6,134.1,75.7,130.8,75.7 M130.2,60.3h-8.5v33.3h6.7V81h2.8
		c7.2,0,12.9-2.8,12.9-10.6C144.1,62.4,137.5,60.3,130.2,60.3"/>
	<path d="M161.9,68.5c-3.3,0-6.1,1.1-8.1,3.9h-0.1v-3.3h-6.1v24.5h6.4v-12c0-3.1,1-8.1,5.6-8.1c4.1,0,4.2,4.1,4.2,7.1v13.1h6.4V78.1
		C170.2,72.6,167.7,68.5,161.9,68.5"/>
	<path d="M180.7,78.9c0.3-3.3,2.1-5.8,5.7-5.8c3.6,0,5,2.7,5.2,5.8H180.7z M186,68.5c-7.6,0-11.4,5.9-11.4,13
		c0,8.1,4.7,12.7,12.9,12.7c3.4,0,6.1-0.7,8.5-1.9V87c-2.4,1.3-5.1,2.5-8.2,2.5c-4,0-6.7-2.2-7-6.2h17
		C197.7,74.7,195.1,68.5,186,68.5"/>
	<path d="M216.9,81.1c0,3.1-1,8.1-5.7,8.1c-4.1,0-4.1-4-4.1-7V69.1h-6.4v15.5c0,5.5,2.5,9.6,8.4,9.6c3.3,0,6.1-1.5,8.1-3.9h0.1v3.3
		h6.1V69.1h-6.4V81.1z"/>
	<path d="M258.2,68.5c-3,0-6.2,1.4-7.7,4.3c-1.4-3-3.8-4.3-7.3-4.3c-2.4,0-5.3,1-7.3,4h-0.1v-3.4h-6v24.5h6.4V81.7
		c0-3.2,0.5-8.2,4.8-8.2c3.7,0,3.7,3.2,3.7,5.5v14.6h6.4V81.7c0-3.2,0.5-8.2,4.8-8.2c3.7,0,3.7,3.2,3.7,5.5v14.6h6.4V78.1
		C266,72.6,264.3,68.5,258.2,68.5"/>
	<path d="M285.8,87.3c-1,1.3-2.5,2.2-4.5,2.2c-2.3,0-4.1-0.9-4.1-3c0-3.8,4.3-4.3,7.1-4.3h2.8C287.1,84.2,286.9,85.9,285.8,87.3
		 M293,82v-3.1c0-7.2-3.1-10.3-10.6-10.3c-2.7,0-6.1,0.7-8.6,1.9l0.2,5.5c2.2-1.6,4.9-2.7,7.6-2.7c3.8,0,5.5,1.3,5.5,5.3h-3.5
		c-2.7,0-5.8,0.2-8.3,1.4c-2.4,1.2-4.2,3.3-4.2,7c0,4.7,4.3,7.3,8.6,7.3c2.9,0,6.1-1.5,7.6-4.2h0.1c0,0.8,0,2.4,0.3,3.6h5.6
		c-0.1-1.9-0.2-3.6-0.3-5.5C293,86.3,293,84.4,293,82"/>
	<path d="M309.8,89.2c-2.4,0-3-2-3-4V73.7h5.7v-4.7h-5.7v-7l-6.4,2.1v4.9h-4.7v4.7h4.7v12.5c0,4.9,2.8,7.9,7.8,7.9
		c1.9,0,3.4-0.2,4.7-0.6l-0.2-5C312,89,310.9,89.2,309.8,89.2"/>
	<rect x="316.7" y="69.1" width="6.4" height="24.5"/>
	<rect x="316.7" y="58.8" width="6.4" height="6.1"/>
	<path d="M345.6,88.1c-1.1,0.5-3.1,1.1-4.9,1.1c-4.5,0-6.6-3.5-6.6-8c0-4.6,2.5-7.8,6.5-7.8c1.9,0,3.2,0.4,4.3,0.9l0.6-5.1
		c-1.8-0.5-3.6-0.8-6.2-0.8c-7.7,0-11.9,5.6-11.9,12.7c0,7.5,4.1,12.9,12.1,12.9c2.6,0,4.5-0.2,6.4-0.8L345.6,88.1z"/>
	<path class="st2" d="M36.3,29c0,0-14.7,5.3-13.6,20.6c0,0-0.6,17.2,20.1,20.4v-9.9c0,0-10.2-1.7-10-12.9c0,0,1-9.6,12.9-10.2l8,0
		v-9.5C53.6,27.4,43.2,25.7,36.3,29"/>
	<path class="st2" d="M55.5,92.1V53c13.4-0.9,12.7,8.2,12.7,8.2c0.5,9.3-9.5,10.3-9.5,10.3v8.7c11.5-0.2,16.6-7.7,16.6-7.7
		c7.4-14.2-2.7-23.9-2.7-23.9c-10.4-9.5-27.2-3.9-27.2-3.9V92c-18.1-2.6-32.1-18.2-32.1-37c0-20.7,16.8-37.4,37.4-37.4
		c20.7,0,37.4,16.8,37.4,37.4C88.2,74.1,73.9,89.8,55.5,92.1 M50.8,8.3C25,8.3,4.1,29.2,4.1,55c0,25.8,20.9,46.7,46.7,46.7
		c25.8,0,46.7-20.9,46.7-46.7C97.5,29.2,76.6,8.3,50.8,8.3"/>
</g>
</svg>
